<?xml version="1.0" standalone="no"?>
<!DOCTYPE svg PUBLIC "-//W3C//DTD SVG 20010904//EN"
 "http://www.w3.org/TR/2001/REC-SVG-20010904/DTD/svg10.dtd">
<svg version="1.0" xmlns="http://www.w3.org/2000/svg"
 width="1920.000000pt" height="1080.000000pt" viewBox="0 0 1920.000000 1080.000000"
 preserveAspectRatio="xMidYMid meet">

<g transform="translate(0.000000,1080.000000) scale(0.100000,-0.100000)"
fill="#000000" stroke="none">
<path d="M8434 9456 c-102 -25 -187 -99 -229 -199 -37 -90 -83 -309 -88 -422
l-2 -60 45 1 c25 0 105 6 179 14 130 12 132 13 95 26 -49 17 -83 43 -111 84
-33 47 -30 72 12 94 49 27 148 126 180 180 15 25 33 46 41 46 23 0 66 -25 93
-54 19 -21 27 -23 43 -15 51 27 54 -34 13 -209 -3 -13 -26 -45 -50 -71 l-44
-47 95 11 c52 6 98 16 103 21 14 14 41 157 41 218 0 65 -17 149 -37 190 -22
43 -103 125 -143 146 -34 17 -166 61 -179 59 -3 0 -29 -6 -57 -13z"/>
<path d="M8584 7766 c-7 -43 52 -333 73 -354 8 -8 15 -13 17 -11 27 40 34 67
40 149 4 52 9 125 12 161 l6 67 -51 11 c-82 17 -89 16 -97 -23z"/>
<path d="M8896 7614 c-21 -162 -21 -173 -7 -207 6 -16 8 -39 5 -51 -5 -20 4
-31 53 -67 120 -91 128 -102 343 -524 166 -326 232 -445 244 -445 6 0 31 16
54 35 45 35 119 67 185 79 20 4 37 9 37 11 0 39 -158 384 -322 705 -245 476
-309 592 -327 583 -21 -10 -142 -9 -202 1 l-46 8 -17 -128z"/>
<path d="M8235 7664 c-483 -118 -507 -127 -520 -182 -5 -27 19 -107 65 -207
10 -22 28 -68 39 -102 35 -105 145 -335 166 -349 17 -11 25 -11 45 -1 69 34
167 71 187 69 13 -1 23 3 23 8 0 23 -52 145 -116 270 -38 74 -70 138 -72 141
-1 3 43 9 98 13 120 7 312 35 323 45 13 13 -71 323 -89 327 -5 2 -72 -13 -149
-32z"/>
<path d="M8310 6617 c-8 -8 -42 -24 -75 -37 -208 -80 -268 -141 -250 -256 4
-28 11 -44 20 -44 8 0 100 42 205 93 129 62 190 97 190 108 0 21 -58 149 -68
149 -4 0 -14 -6 -22 -13z"/>
<path d="M9875 6167 c-49 -24 -111 -52 -138 -62 -40 -15 -46 -21 -41 -38 10
-33 63 -147 67 -147 10 0 374 167 405 186 10 6 -22 44 -56 68 -27 18 -58 29
-93 32 -49 5 -63 1 -144 -39z"/>
<path d="M12330 4331 c-191 -63 -340 -276 -425 -611 -49 -193 -58 -277 -58
-520 0 -241 9 -324 58 -520 68 -267 172 -452 313 -553 48 -34 135 -68 146 -56
22 21 35 779 17 989 l-6 75 -245 132 c-135 72 -246 137 -247 145 -2 7 1 19 6
27 10 15 9 15 201 -86 224 -119 273 -144 277 -139 12 11 -39 585 -62 710 -20
105 -20 106 14 106 34 0 34 0 51 -145 25 -210 50 -475 68 -721 l7 -100 235
126 c183 99 238 125 249 116 23 -17 7 172 -17 221 -11 21 -39 91 -62 157 -38
107 -53 154 -107 361 -27 100 -122 210 -225 260 -56 27 -147 40 -188 26z"/>
<path d="M12809 3192 c-69 -37 -179 -96 -245 -131 l-119 -63 -1 -412 c0 -226
-4 -435 -8 -465 l-7 -54 33 7 c85 17 202 121 277 245 84 139 165 396 190 601
10 80 17 327 9 335 -1 2 -60 -27 -129 -63z"/>
</g>
</svg>
